<?xml version="1.0" encoding="UTF-8"?><svg xmlns="http://www.w3.org/2000/svg" viewBox="0 0 209.55 183.56"><g id="a"/><g id="b"><path d="M184,156.13c-1.69,.45-3.46,.72-5.29,.72-11.23,0-20.34-9.11-20.34-20.34,0-4.01,1.18-7.74,3.18-10.9L101.67,44.2l-62.18,84.56c.96,2.36,1.5,4.94,1.5,7.65,0,11.23-9.11,20.34-20.34,20.34-.57,0-1.12-.04-1.68-.08L1.91,179.86H201.45l-17.46-23.73Z" fill="gold"/><g><path d="M32.79,14.47c-1.55-2.66-5.81-5.19-10.71-5.19-6.33,0-9.36,2.73-9.36,6.19,0,4.06,4.65,5.19,10.07,5.86,9.42,1.2,18.2,3.73,18.2,14.85,0,10.39-8.91,14.85-18.98,14.85-9.23,0-16.33-2.93-19.69-11.46l7.1-3.8c2,5.13,7.23,7.39,12.72,7.39s10.39-1.93,10.39-6.99c0-4.4-4.45-6.19-10.46-6.86-9.23-1.13-17.75-3.66-17.75-14.12C4.33,5.62,13.49,1.69,21.82,1.62c7.04,0,14.33,2.06,17.75,9.26l-6.78,3.6Z" fill="#777"/><path d="M97.41,11.54h-14.33V3.55h37.18v7.99h-14.33V50.17h-8.52V11.54Z" fill="#777"/><path d="M200.17,3.28V29.99c0,13.79-8.2,20.85-19.56,20.85s-20.07-6.79-20.07-20.85V3.28h8.46V29.99c0,8.39,4.65,12.85,11.68,12.85s11.04-4.86,11.04-12.85V3.28h8.46Z" fill="#777"/></g><g><path d="M44.35,136.07c.19,11.79-6.78,23.71-22.59,23.71H4.01v-46.62H21.76c15.49,0,22.4,11.39,22.59,22.91Zm-31.89,15.25h9.29c10.26,0,14.33-7.73,14.14-15.32-.19-7.26-4.32-14.52-14.14-14.52H12.46v29.84Z" fill="#777"/><path d="M201.91,136.74c-.13,12.06-7.29,24.11-23.17,24.11s-23.24-11.79-23.24-24.04,7.62-24.58,23.24-24.58,23.3,12.32,23.17,24.51Zm-38.02,.2c.19,7.66,4.2,15.85,14.85,15.85s14.65-8.26,14.78-15.92c.13-7.86-4.13-16.65-14.78-16.65s-15.04,8.86-14.85,16.72Z" fill="#777"/><path d="M97.62,159.78v-46.62h8.45v46.62h-8.45Z" fill="#777"/></g><g><path d="M23.91,97.47H4.13v-30.72H23.91v5.62H9.07v7.07h14.31v5.4H9.07v6.93h14.83v5.7Z" fill="#010101"/><path d="M58.72,75.22l-8.61,13.34h-.98l-8.42-13.38v22.34h-4.98v-30.72h5.74l8.27,13.21,8.27-13.21h5.7v30.72h-4.98v-22.29Z" fill="#010101"/><path d="M88.78,88.43h-7.47v9.04h-4.98v-30.72c4.15,0,8.3-.04,12.46-.04,12.91,0,12.95,21.72,0,21.72Zm-7.47-5.31h7.47c6.38,0,6.34-10.88,0-10.88h-7.47v10.88Z" fill="#010101"/><path d="M109.81,97.47v-30.72h4.95v30.72h-4.95Z" fill="#010101"/><path d="M150.82,97.47h-5.93l-7.7-10.27h-4.79v10.27h-4.98v-30.76c4.19,0,8.38,.04,12.57,.04,6.23,.04,9.51,4.87,9.51,10.18,0,4.21-1.66,8.47-6.68,9.65l8,10.49v.39Zm-18.42-25.32v9.83h7.59c3.17,0,4.53-2.46,4.53-4.92s-1.4-4.91-4.53-4.91h-7.59Z" fill="#010101"/><path d="M160.83,97.47v-30.72h4.95v30.72h-4.95Z" fill="#010101"/><path d="M201.68,93.61c-2.72,3.12-6.23,4.56-10.04,4.56-9.81,0-13.97-7.86-14-15.84-.04-8.03,4.45-16.19,14-16.19,3.59,0,6.98,1.58,9.7,4.7l-3.32,3.73c-1.74-1.97-4.08-2.9-6.38-2.9-6.38,0-9.13,5.53-9.1,10.66,.04,5.09,2.57,10.4,9.1,10.4,2.3,0,4.91-1.1,6.64-3.12l3.4,3.99Z" fill="#010101"/></g></g></svg>